TITLE ""
FILE "P1Q_t_0720-0728.mp3" MP3
  TRACK 01 AUDIO
    TITLE "P1Q_t_0720-0728_01"
    INDEX 01 00:00:00
  TRACK 02 AUDIO
    TITLE "P1Q_t_0720-0728_02"
    INDEX 01 00:01:18
  TRACK 03 AUDIO
    TITLE "P1Q_t_0720-0728_03"
    INDEX 01 00:01:37
  TRACK 04 AUDIO
    TITLE "P1Q_t_0720-0728_04"
    INDEX 01 00:04:47
  TRACK 05 AUDIO
    TITLE "P1Q_t_0720-0728_05"
    INDEX 01 00:04:69
  TRACK 06 AUDIO
    TITLE "P1Q_t_0720-0728_06"
    INDEX 01 00:08:55
  TRACK 07 AUDIO
    TITLE "P1Q_t_0720-0728_07"
    INDEX 01 00:09:27
  TRACK 08 AUDIO
    TITLE "P1Q_t_0720-0728_08"
    INDEX 01 00:10:34
  TRACK 09 AUDIO
    TITLE "P1Q_t_0720-0728_09"
    INDEX 01 00:10:56
  TRACK 10 AUDIO
    TITLE "P1Q_t_0720-0728_10"
    INDEX 01 00:15:69
  TRACK 11 AUDIO
    TITLE "P1Q_t_0720-0728_11"
    INDEX 01 00:16:15
  TRACK 12 AUDIO
    TITLE "P1Q_t_0720-0728_12"
    INDEX 01 00:20:50
  TRACK 13 AUDIO
    TITLE "P1Q_t_0720-0728_13"
    INDEX 01 00:21:24
  TRACK 14 AUDIO
    TITLE "P1Q_t_0720-0728_14"
    INDEX 01 00:22:39
  TRACK 15 AUDIO
    TITLE "P1Q_t_0720-0728_15"
    INDEX 01 00:22:61
  TRACK 16 AUDIO
    TITLE "P1Q_t_0720-0728_16"
    INDEX 01 00:26:19
  TRACK 17 AUDIO
    TITLE "P1Q_t_0720-0728_17"
    INDEX 01 00:26:41
  TRACK 18 AUDIO
    TITLE "P1Q_t_0720-0728_18"
    INDEX 01 00:30:51
  TRACK 19 AUDIO
    TITLE "P1Q_t_0720-0728_19"
    INDEX 01 00:31:21
  TRACK 20 AUDIO
    TITLE "P1Q_t_0720-0728_20"
    INDEX 01 00:32:46
  TRACK 21 AUDIO
    TITLE "P1Q_t_0720-0728_21"
    INDEX 01 00:32:71
  TRACK 22 AUDIO
    TITLE "P1Q_t_0720-0728_22"
    INDEX 01 00:35:44
  TRACK 23 AUDIO
    TITLE "P1Q_t_0720-0728_23"
    INDEX 01 00:35:64
  TRACK 24 AUDIO
    TITLE "P1Q_t_0720-0728_24"
    INDEX 01 00:40:08
  TRACK 25 AUDIO
    TITLE "P1Q_t_0720-0728_25"
    INDEX 01 00:40:57
  TRACK 26 AUDIO
    TITLE "P1Q_t_0720-0728_26"
    INDEX 01 00:41:56
  TRACK 27 AUDIO
    TITLE "P1Q_t_0720-0728_27"
    INDEX 01 00:42:01
  TRACK 28 AUDIO
    TITLE "P1Q_t_0720-0728_28"
    INDEX 01 00:45:13
  TRACK 29 AUDIO
    TITLE "P1Q_t_0720-0728_29"
    INDEX 01 00:45:33
  TRACK 30 AUDIO
    TITLE "P1Q_t_0720-0728_30"
    INDEX 01 00:49:58
  TRACK 31 AUDIO
    TITLE "P1Q_t_0720-0728_31"
    INDEX 01 00:50:30
  TRACK 32 AUDIO
    TITLE "P1Q_t_0720-0728_32"
    INDEX 01 00:51:63
  TRACK 33 AUDIO
    TITLE "P1Q_t_0720-0728_33"
    INDEX 01 00:52:07
  TRACK 34 AUDIO
    TITLE "P1Q_t_0720-0728_34"
    INDEX 01 00:53:71
  TRACK 35 AUDIO
    TITLE "P1Q_t_0720-0728_35"
    INDEX 01 00:54:16
  TRACK 36 AUDIO
    TITLE "P1Q_t_0720-0728_36"
    INDEX 01 00:59:19
  TRACK 37 AUDIO
    TITLE "P1Q_t_0720-0728_37"
    INDEX 01 00:59:66
  TRACK 38 AUDIO
    TITLE "P1Q_t_0720-0728_38"
    INDEX 01 01:01:14
  TRACK 39 AUDIO
    TITLE "P1Q_t_0720-0728_39"
    INDEX 01 01:01:35
  TRACK 40 AUDIO
    TITLE "P1Q_t_0720-0728_40"
    INDEX 01 01:02:74
  TRACK 41 AUDIO
    TITLE "P1Q_t_0720-0728_41"
    INDEX 01 01:03:19
  TRACK 42 AUDIO
    TITLE "P1Q_t_0720-0728_42"
    INDEX 01 01:07:58
  TRACK 43 AUDIO
    TITLE "P1Q_t_0720-0728_43"
    INDEX 01 01:08:30
  TRACK 44 AUDIO
    TITLE "P1Q_t_0720-0728_44"
    INDEX 01 01:09:43
  TRACK 45 AUDIO
    TITLE "P1Q_t_0720-0728_45"
    INDEX 01 01:09:64
  TRACK 46 AUDIO
    TITLE "P1Q_t_0720-0728_46"
    INDEX 01 01:11:30
  TRACK 47 AUDIO
    TITLE "P1Q_t_0720-0728_47"
    INDEX 01 01:11:52
  TRACK 48 AUDIO
    TITLE "P1Q_t_0720-0728_48"
    INDEX 01 01:16:10
  TRACK 49 AUDIO
    TITLE "P1Q_t_0720-0728_49"
    INDEX 01 01:16:62
  TRACK 50 AUDIO
    TITLE "P1Q_t_0720-0728_50"
    INDEX 01 01:18:03
  TRACK 51 AUDIO
    TITLE "P1Q_t_0720-0728_51"
    INDEX 01 01:18:22
  TRACK 52 AUDIO
    TITLE "P1Q_t_0720-0728_52"
    INDEX 01 01:20:74
  TRACK 53 AUDIO
    TITLE "P1Q_t_0720-0728_53"
    INDEX 01 01:21:21
  TRACK 54 AUDIO
    TITLE "P1Q_t_0720-0728_54"
    INDEX 01 01:26:31
